<svg xmlns="http://www.w3.org/2000/svg" version="1.1" xmlns:xlink="http://www.w3.org/1999/xlink" xmlns:svgjs="http://svgjs.dev/svgjs" width="2000" height="1247" viewBox="0 0 2000 1247"><g transform="matrix(1,0,0,1,-1.2121212121212466,0.5048582995951847)"><svg viewBox="0 0 396 247" data-background-color="#f65306" preserveAspectRatio="xMidYMid meet" height="1247" width="2000" xmlns="http://www.w3.org/2000/svg" xmlns:xlink="http://www.w3.org/1999/xlink"><g id="tight-bounds" transform="matrix(1,0,0,1,0.2400000000000091,-0.09999999999999432)"><svg viewBox="0 0 395.52 247.2" height="247.2" width="395.52"><g><svg></svg></g><g><svg viewBox="0 0 395.52 247.2" height="247.2" width="395.52"><g transform="matrix(1,0,0,1,75.54432000000001,71.83206460093896)"><svg viewBox="0 0 244.43135999999996 103.53587079812205" height="103.53587079812205" width="244.43135999999996"><g><svg viewBox="0 0 244.43135999999996 103.53587079812205" height="103.53587079812205" width="244.43135999999996"><g><svg viewBox="0 0 244.43135999999996 103.53587079812205" height="103.53587079812205" width="244.43135999999996"><g><svg viewBox="0 0 244.43135999999996 103.53587079812205" height="103.53587079812205" width="244.43135999999996"><g><svg viewBox="0 0 244.43135999999996 103.53587079812205" height="103.53587079812205" width="244.43135999999996"><g><svg viewBox="0 0 244.43135999999996 103.53587079812205" height="103.53587079812205" width="244.43135999999996"><g transform="matrix(1,0,0,1,0,0)"><svg width="244.43135999999996" viewBox="2.3499999046325684 -36.79999923706055 95.8499984741211 40.599998474121094" height="103.53587079812205" data-palette-color="#fbfbfb"><path d="M25.7 3.7L25.7 3.7Q25.6 3.75 25.5 3.75 25.4 3.75 25.1 3.75L25.1 3.75Q24.4 3.75 23.48 3.53 22.55 3.3 21.68 2.98 20.8 2.65 20.18 2.25 19.55 1.85 19.4 1.55L19.4 1.55Q19.35 0.85 19.35 0.1 19.35-0.65 19.35-1.35L19.35-1.35Q19.35-6.95 20.18-13.05 21-19.15 22.9-26.25L22.9-26.25Q23.1-26.95 23.33-28.03 23.55-29.1 23.8-30.35L23.8-30.35Q22.6-29.4 20.95-27.33 19.3-25.25 17.48-22.43 15.65-19.6 13.83-16.23 12-12.85 10.5-9.38 9-5.9 7.93-2.5 6.85 0.9 6.6 3.8L6.6 3.8Q4.2 3.1 3.28 2.4 2.35 1.7 2.35 0.7L2.35 0.7Q2.35-0.2 2.9-1.85 3.45-3.5 4.45-5.75 5.45-8 6.9-10.78 8.35-13.55 10.1-16.75L10.1-16.75Q12.1-20.4 14.03-23.6 15.95-26.8 17.8-29.4 19.65-32 21.43-33.9 23.2-35.8 24.95-36.8L24.95-36.8Q25.65-36.8 26.83-36.45 28-36.1 29.13-35.6 30.25-35.1 31.13-34.58 32-34.05 32.1-33.7L32.1-33.7Q31.4-32.3 30.45-29.5 29.5-26.7 28.53-23.15 27.55-19.6 26.68-15.63 25.8-11.65 25.3-8L25.3-8Q26.45-10.75 27.98-13.73 29.5-16.7 31.2-19.63 32.9-22.55 34.68-25.3 36.45-28.05 38.15-30.33 39.85-32.6 41.33-34.3 42.8-36 43.95-36.8L43.95-36.8Q44.65-36.8 45.83-36.45 47-36.1 48.13-35.6 49.25-35.1 50.13-34.58 51-34.05 51.1-33.7L51.1-33.7Q49.5-30.85 48.3-26.75 47.1-22.65 46.28-18.15 45.45-13.65 45.03-9.22 44.6-4.8 44.6-1.3L44.6-1.3Q44.6-0.15 44.6 1.1 44.6 2.35 44.7 3.7L44.7 3.7Q44 3.7 43.03 3.53 42.05 3.35 41.13 3.05 40.2 2.75 39.45 2.38 38.7 2 38.4 1.55L38.4 1.55Q38.35 0.85 38.35 0.1 38.35-0.65 38.35-1.35L38.35-1.35Q38.35-6.95 39.18-13.05 40-19.15 41.9-26.25L41.9-26.25Q42.1-26.95 42.35-28.15 42.6-29.35 42.85-30.65L42.85-30.65Q41.45-29.95 39.68-27.98 37.9-26 36.08-23.18 34.25-20.35 32.48-16.9 30.7-13.45 29.28-9.88 27.85-6.3 26.88-2.78 25.9 0.75 25.7 3.7ZM72.8 3.7L72.8 3.7Q72.7 3.75 72.6 3.75 72.5 3.75 72.2 3.75L72.2 3.75Q71.5 3.75 70.57 3.53 69.65 3.3 68.77 2.98 67.9 2.65 67.27 2.25 66.65 1.85 66.5 1.55L66.5 1.55Q66.45 0.85 66.45 0.1 66.45-0.65 66.45-1.35L66.45-1.35Q66.45-6.95 67.27-13.05 68.1-19.15 70-26.25L70-26.25Q70.2-26.95 70.42-28.03 70.65-29.1 70.9-30.35L70.9-30.35Q69.7-29.4 68.05-27.33 66.4-25.25 64.57-22.43 62.75-19.6 60.92-16.23 59.1-12.85 57.6-9.38 56.1-5.9 55.02-2.5 53.95 0.9 53.7 3.8L53.7 3.8Q51.3 3.1 50.37 2.4 49.45 1.7 49.45 0.7L49.45 0.7Q49.45-0.2 50-1.85 50.55-3.5 51.55-5.75 52.55-8 54-10.78 55.45-13.55 57.2-16.75L57.2-16.75Q59.2-20.4 61.12-23.6 63.05-26.8 64.9-29.4 66.75-32 68.52-33.9 70.3-35.8 72.05-36.8L72.05-36.8Q72.75-36.8 73.92-36.45 75.1-36.1 76.22-35.6 77.35-35.1 78.22-34.58 79.1-34.05 79.2-33.7L79.2-33.7Q78.5-32.3 77.55-29.5 76.6-26.7 75.62-23.15 74.65-19.6 73.77-15.63 72.9-11.65 72.4-8L72.4-8Q73.55-10.75 75.07-13.73 76.6-16.7 78.3-19.63 80-22.55 81.77-25.3 83.55-28.05 85.25-30.33 86.95-32.6 88.42-34.3 89.9-36 91.05-36.8L91.05-36.8Q91.75-36.8 92.92-36.45 94.1-36.1 95.22-35.6 96.35-35.1 97.22-34.58 98.1-34.05 98.2-33.7L98.2-33.7Q96.6-30.85 95.4-26.75 94.2-22.65 93.37-18.15 92.55-13.65 92.12-9.22 91.7-4.8 91.7-1.3L91.7-1.3Q91.7-0.15 91.7 1.1 91.7 2.35 91.8 3.7L91.8 3.7Q91.1 3.7 90.12 3.53 89.15 3.35 88.22 3.05 87.3 2.75 86.55 2.38 85.8 2 85.5 1.55L85.5 1.55Q85.45 0.85 85.45 0.1 85.45-0.65 85.45-1.35L85.45-1.35Q85.45-6.95 86.27-13.05 87.1-19.15 89-26.25L89-26.25Q89.2-26.95 89.45-28.15 89.7-29.35 89.95-30.65L89.95-30.65Q88.55-29.95 86.77-27.98 85-26 83.17-23.18 81.35-20.35 79.57-16.9 77.8-13.45 76.37-9.88 74.95-6.3 73.97-2.78 73 0.75 72.8 3.7Z" opacity="1" transform="matrix(1,0,0,1,0,0)" fill="#fbfbfb" class="undefined-text-0" data-fill-palette-color="primary" id="text-0"></path></svg></g></svg></g></svg></g></svg></g></svg></g></svg></g></svg></g><g><path d="M245.816 0c68.262 0 123.6 55.338 123.6 123.6 0 68.262-55.338 123.6-123.6 123.6-44.84 0-84.103-23.877-105.768-59.611h5.5c21.129 33.039 58.141 54.942 100.268 54.943 65.684 0 118.932-53.247 118.931-118.932 0-65.684-53.247-118.932-118.931-118.932-42.127 0-79.139 21.903-100.268 54.943l-5.5 0c21.665-35.734 60.928-59.611 105.768-59.611z" fill="#ffffff" stroke="transparent" data-fill-palette-color="tertiary"></path></g></svg></g><defs></defs></svg><rect width="395.52" height="247.2" fill="none" stroke="none" visibility="hidden"></rect></g></svg></g></svg>